<svg id="visual" viewBox="0 0 1920 1080" width="1920" height="1080" xmlns="http://www.w3.org/2000/svg" xmlns:xlink="http://www.w3.org/1999/xlink" version="1.1"><rect x="0" y="0" width="1920" height="1080" fill="#ffffff"></rect><path d="M0 540L40 564.5C80 589 160 638 240 629.5C320 621 400 555 480 528C560 501 640 513 720 538C800 563 880 601 960 614.7C1040 628.3 1120 617.7 1200 600.2C1280 582.7 1360 558.3 1440 570.5C1520 582.7 1600 631.3 1680 639.5C1760 647.7 1840 615.3 1880 599.2L1920 583L1920 0L1880 0C1840 0 1760 0 1680 0C1600 0 1520 0 1440 0C1360 0 1280 0 1200 0C1120 0 1040 0 960 0C880 0 800 0 720 0C640 0 560 0 480 0C400 0 320 0 240 0C160 0 80 0 40 0L0 0Z" fill="#fa7268"></path><path d="M0 606L40 593C80 580 160 554 240 542.2C320 530.3 400 532.7 480 544.3C560 556 640 577 720 568C800 559 880 520 960 492.2C1040 464.3 1120 447.7 1200 437.8C1280 428 1360 425 1440 453.2C1520 481.3 1600 540.7 1680 571C1760 601.3 1840 602.7 1880 603.3L1920 604L1920 0L1880 0C1840 0 1760 0 1680 0C1600 0 1520 0 1440 0C1360 0 1280 0 1200 0C1120 0 1040 0 960 0C880 0 800 0 720 0C640 0 560 0 480 0C400 0 320 0 240 0C160 0 80 0 40 0L0 0Z" fill="#f36567"></path><path d="M0 384L40 388.7C80 393.3 160 402.7 240 413.5C320 424.3 400 436.7 480 430.5C560 424.3 640 399.7 720 399.7C800 399.7 880 424.3 960 447C1040 469.7 1120 490.3 1200 479.3C1280 468.3 1360 425.7 1440 418.8C1520 412 1600 441 1680 437.8C1760 434.7 1840 399.3 1880 381.7L1920 364L1920 0L1880 0C1840 0 1760 0 1680 0C1600 0 1520 0 1440 0C1360 0 1280 0 1200 0C1120 0 1040 0 960 0C880 0 800 0 720 0C640 0 560 0 480 0C400 0 320 0 240 0C160 0 80 0 40 0L0 0Z" fill="#eb5967"></path><path d="M0 409L40 404.2C80 399.3 160 389.7 240 375.2C320 360.7 400 341.3 480 333C560 324.7 640 327.3 720 342.5C800 357.7 880 385.3 960 385.8C1040 386.3 1120 359.7 1200 360.8C1280 362 1360 391 1440 393.8C1520 396.7 1600 373.3 1680 354.3C1760 335.3 1840 320.7 1880 313.3L1920 306L1920 0L1880 0C1840 0 1760 0 1680 0C1600 0 1520 0 1440 0C1360 0 1280 0 1200 0C1120 0 1040 0 960 0C880 0 800 0 720 0C640 0 560 0 480 0C400 0 320 0 240 0C160 0 80 0 40 0L0 0Z" fill="#e34c67"></path><path d="M0 215L40 219.2C80 223.3 160 231.7 240 238.5C320 245.3 400 250.7 480 260C560 269.3 640 282.7 720 278C800 273.3 880 250.7 960 256.2C1040 261.7 1120 295.3 1200 293.3C1280 291.3 1360 253.7 1440 242.2C1520 230.7 1600 245.3 1680 250.3C1760 255.3 1840 250.7 1880 248.3L1920 246L1920 0L1880 0C1840 0 1760 0 1680 0C1600 0 1520 0 1440 0C1360 0 1280 0 1200 0C1120 0 1040 0 960 0C880 0 800 0 720 0C640 0 560 0 480 0C400 0 320 0 240 0C160 0 80 0 40 0L0 0Z" fill="#da3f67"></path><path d="M0 163L40 166C80 169 160 175 240 176.5C320 178 400 175 480 180.7C560 186.3 640 200.7 720 200.8C800 201 880 187 960 184.8C1040 182.7 1120 192.3 1200 190C1280 187.7 1360 173.3 1440 177.3C1520 181.3 1600 203.7 1680 216.7C1760 229.7 1840 233.3 1880 235.2L1920 237L1920 0L1880 0C1840 0 1760 0 1680 0C1600 0 1520 0 1440 0C1360 0 1280 0 1200 0C1120 0 1040 0 960 0C880 0 800 0 720 0C640 0 560 0 480 0C400 0 320 0 240 0C160 0 80 0 40 0L0 0Z" fill="#d03267"></path><path d="M0 119L40 115.5C80 112 160 105 240 108.3C320 111.7 400 125.3 480 131.8C560 138.3 640 137.7 720 138.5C800 139.3 880 141.7 960 134.8C1040 128 1120 112 1200 105C1280 98 1360 100 1440 106.5C1520 113 1600 124 1680 131.5C1760 139 1840 143 1880 145L1920 147L1920 0L1880 0C1840 0 1760 0 1680 0C1600 0 1520 0 1440 0C1360 0 1280 0 1200 0C1120 0 1040 0 960 0C880 0 800 0 720 0C640 0 560 0 480 0C400 0 320 0 240 0C160 0 80 0 40 0L0 0Z" fill="#c62368"></path></svg>