<svg id="visual" viewBox="0 0 1920 1080" width="1920" height="1080" xmlns="http://www.w3.org/2000/svg" xmlns:xlink="http://www.w3.org/1999/xlink" version="1.1"><path d="M0 111L40 104C80 97 160 83 240 86.5C320 90 400 111 480 124.3C560 137.7 640 143.3 720 141.5C800 139.7 880 130.3 960 129.5C1040 128.7 1120 136.3 1200 138.7C1280 141 1360 138 1440 135.7C1520 133.3 1600 131.7 1680 121.3C1760 111 1840 92 1880 82.5L1920 73L1920 0L1880 0C1840 0 1760 0 1680 0C1600 0 1520 0 1440 0C1360 0 1280 0 1200 0C1120 0 1040 0 960 0C880 0 800 0 720 0C640 0 560 0 480 0C400 0 320 0 240 0C160 0 80 0 40 0L0 0Z" fill="#FA7268"></path></svg>