<svg id="visual" viewBox="0 0 960 540" width="960" height="540" xmlns="http://www.w3.org/2000/svg" xmlns:xlink="http://www.w3.org/1999/xlink" version="1.1"><path d="M0 196L22.8 197.5C45.7 199 91.3 202 137 202.7C182.7 203.3 228.3 201.7 274 190.2C319.7 178.7 365.3 157.3 411.2 158.8C457 160.3 503 184.7 548.8 190.2C594.7 195.7 640.3 182.3 686 184.8C731.7 187.3 777.3 205.7 823 211C868.7 216.3 914.3 208.7 937.2 204.8L960 201L960 0L937.2 0C914.3 0 868.7 0 823 0C777.3 0 731.7 0 686 0C640.3 0 594.7 0 548.8 0C503 0 457 0 411.2 0C365.3 0 319.7 0 274 0C228.3 0 182.7 0 137 0C91.3 0 45.7 0 22.8 0L0 0Z" fill="#fa7268"></path><path d="M0 178L22.8 166.8C45.7 155.7 91.3 133.3 137 128.8C182.7 124.3 228.3 137.7 274 143C319.7 148.3 365.3 145.7 411.2 142.2C457 138.7 503 134.3 548.8 137C594.7 139.7 640.3 149.3 686 150.2C731.7 151 777.3 143 823 139.8C868.7 136.7 914.3 138.3 937.2 139.2L960 140L960 0L937.2 0C914.3 0 868.7 0 823 0C777.3 0 731.7 0 686 0C640.3 0 594.7 0 548.8 0C503 0 457 0 411.2 0C365.3 0 319.7 0 274 0C228.3 0 182.7 0 137 0C91.3 0 45.7 0 22.8 0L0 0Z" fill="#ef5f67"></path><path d="M0 113L22.8 117.5C45.7 122 91.3 131 137 134.5C182.7 138 228.3 136 274 136.3C319.7 136.7 365.3 139.3 411.2 137.7C457 136 503 130 548.8 122.7C594.7 115.3 640.3 106.7 686 101C731.7 95.3 777.3 92.7 823 95.5C868.7 98.3 914.3 106.7 937.2 110.8L960 115L960 0L937.2 0C914.3 0 868.7 0 823 0C777.3 0 731.7 0 686 0C640.3 0 594.7 0 548.8 0C503 0 457 0 411.2 0C365.3 0 319.7 0 274 0C228.3 0 182.7 0 137 0C91.3 0 45.7 0 22.8 0L0 0Z" fill="#e34c67"></path><path d="M0 57L22.8 59.5C45.7 62 91.3 67 137 69.5C182.7 72 228.3 72 274 75C319.7 78 365.3 84 411.2 87C457 90 503 90 548.8 83.3C594.7 76.7 640.3 63.3 686 63C731.7 62.7 777.3 75.3 823 80.3C868.7 85.3 914.3 82.7 937.2 81.3L960 80L960 0L937.2 0C914.3 0 868.7 0 823 0C777.3 0 731.7 0 686 0C640.3 0 594.7 0 548.8 0C503 0 457 0 411.2 0C365.3 0 319.7 0 274 0C228.3 0 182.7 0 137 0C91.3 0 45.7 0 22.8 0L0 0Z" fill="#d53867"></path><path d="M0 30L22.8 28.7C45.7 27.3 91.3 24.7 137 28C182.7 31.3 228.3 40.7 274 44.8C319.7 49 365.3 48 411.2 48.5C457 49 503 51 548.8 47.5C594.7 44 640.3 35 686 34.8C731.7 34.7 777.3 43.3 823 50C868.7 56.7 914.3 61.3 937.2 63.7L960 66L960 0L937.2 0C914.3 0 868.7 0 823 0C777.3 0 731.7 0 686 0C640.3 0 594.7 0 548.8 0C503 0 457 0 411.2 0C365.3 0 319.7 0 274 0C228.3 0 182.7 0 137 0C91.3 0 45.7 0 22.8 0L0 0Z" fill="#c62368"></path></svg>